<?xml version="1.0" encoding="utf-8"?>
<!-- Generator: Adobe Illustrator 16.0.4, SVG Export Plug-In . SVG Version: 6.00 Build 0)  -->
<!DOCTYPE svg PUBLIC "-//W3C//DTD SVG 1.1//EN" "http://www.w3.org/Graphics/SVG/1.1/DTD/svg11.dtd">
<svg version="1.1" xmlns="http://www.w3.org/2000/svg" xmlns:xlink="http://www.w3.org/1999/xlink" x="0px" y="0px"
	 width="315.152px" height="130px" viewBox="0 0 315.152 130" enable-background="new 0 0 315.152 130" xml:space="preserve">
<g id="Layer_1">
	<g>
		<path fill-rule="evenodd" clip-rule="evenodd" fill="#1F1A17" d="M296.156,64.867h3.703l2.946-16.77h-3.702L296.156,64.867z
			 M305.042,64.867h4.056l-3.323-8.561l6.323-8.209h-4.534l-5.868,8.209L305.042,64.867z M289.053,64.867h3.703l2.947-16.77h-3.705
			L289.053,64.867z M281.096,64.867h4.56l2.946-16.77H285l-2.142,12.162l-3.674-12.162h-4.511l-2.945,16.77h3.627l1.988-11.508
			L281.096,64.867z M267.12,53.46l-1.057,6.043c-0.229,1.335-0.582,2.089-2.571,2.089h-2.565l1.811-10.224h2.343
			c1.587,0,2.115,0.502,2.115,1.411C267.195,52.98,267.171,53.208,267.12,53.46z M263.492,64.867c4.813,0,5.719-2.115,6.097-4.33
			l1.31-7.405c0.052-0.305,0.074-0.629,0.074-0.932c0-2.117-1.334-4.104-4.959-4.104h-6.396l-2.974,16.77H263.492z M252.086,53.284
			l-1.135,6.396c-0.249,1.434-1.259,2.167-3.173,2.167c-1.813,0-2.468-0.58-2.468-1.588c0-0.176,0.025-0.378,0.05-0.579l1.134-6.396
			c0.253-1.336,1.259-2.166,3.172-2.166c1.79,0,2.468,0.628,2.468,1.663C252.134,52.932,252.11,53.107,252.086,53.284z
			 M247.199,65.125c4.963,0,6.851-1.919,7.403-5.117l1.21-6.85c0.053-0.252,0.075-0.528,0.075-0.757
			c0-2.292-1.863-4.557-5.842-4.557c-4.734,0-6.646,1.988-7.202,5.112l-1.21,6.924c-0.05,0.252-0.075,0.529-0.075,0.781
			C241.558,62.928,243.247,65.125,247.199,65.125z M236.773,54.693c-0.226,1.26-0.604,1.863-2.315,1.863h-3.049l0.908-5.187h3.123
			c1.132,0,1.636,0.403,1.636,1.26c0,0.175-0.026,0.426-0.074,0.729L236.773,54.693z M234.155,59.754
			c4.432,0,5.717-1.586,6.271-4.709l0.329-1.888c0.075-0.404,0.15-0.935,0.15-1.286c0-2.392-1.74-3.775-5.342-3.775h-6.395
			l-2.946,16.77h3.701l0.907-5.112H234.155z M214.739,47.06c1.411-0.577,2.492-1.156,3.702-2.01l-1.135-2.067
			c-1.437,0.983-2.265,1.485-3.6,2.217L214.739,47.06z M215.269,60.032l7.453-11.936h-4.258l-4.405,7.756l-1.863-7.756h-3.751
			l3.094,11.936l-0.828,4.834h3.728L215.269,60.032z M199.628,64.867h4.557l2.948-16.77h-3.601l-2.141,12.162l-3.678-12.162h-4.507
			l-2.945,16.77h3.624l1.989-11.508L199.628,64.867z M183.916,64.867l7.605-16.77h-4.03l-5.895,13.572l-1.208-13.572h-3.776
			l1.787,16.77H183.916z M168.175,51.192l0.705,7.303h-4.004L168.175,51.192z M169.584,64.867h3.929l-2.392-16.77h-5.063
			l-8.062,16.77h4.01l1.509-3.298h5.717L169.584,64.867z M153.77,54.541c-0.227,1.286-0.656,1.89-2.292,1.89h-3.172l0.882-5.061
			h3.072c1.283,0,1.812,0.352,1.812,1.208c0,0.125-0.025,0.43-0.076,0.707L153.77,54.541z M153.216,64.867h4.155l-3.173-5.74
			c2.089-0.73,2.845-2.065,3.199-4.156l0.352-2.015c0.051-0.379,0.101-0.706,0.101-1.033c0-2.467-1.762-3.826-5.364-3.826h-6.423
			l-2.946,16.77h3.702l0.908-5.236h2.542L153.216,64.867z M138.761,54.693c-0.227,1.26-0.604,1.863-2.317,1.863h-3.048l0.909-5.187
			h3.121c1.135,0,1.637,0.403,1.637,1.26c0,0.175-0.025,0.426-0.075,0.729L138.761,54.693z M136.143,59.754
			c4.431,0,5.715-1.586,6.27-4.709l0.326-1.888c0.076-0.404,0.151-0.935,0.151-1.286c0-2.392-1.736-3.775-5.337-3.775h-6.398
			l-2.947,16.77h3.704l0.906-5.112H136.143z M123.649,53.284l-1.134,6.396c-0.251,1.434-1.258,2.167-3.173,2.167
			c-1.812,0-2.466-0.58-2.466-1.588c0-0.176,0.024-0.378,0.049-0.579l1.134-6.396c0.251-1.336,1.258-2.166,3.173-2.166
			c1.788,0,2.468,0.628,2.468,1.663C123.701,52.932,123.676,53.107,123.649,53.284z M118.766,65.125c4.959,0,6.85-1.919,7.402-5.117
			l1.211-6.85c0.049-0.252,0.075-0.528,0.075-0.757c0-2.292-1.865-4.557-5.843-4.557c-4.734,0-6.649,1.988-7.204,5.112L113.2,59.88
			c-0.051,0.252-0.075,0.529-0.075,0.781C113.125,62.928,114.811,65.125,118.766,65.125z M108.086,53.46l-1.058,6.043
			c-0.226,1.335-0.579,2.089-2.567,2.089h-2.569l1.812-10.224h2.343c1.586,0,2.115,0.502,2.115,1.411
			C108.164,52.98,108.138,53.208,108.086,53.46z M104.461,64.867c4.808,0,5.716-2.115,6.093-4.33l1.31-7.405
			c0.05-0.305,0.076-0.629,0.076-0.932c0-2.117-1.334-4.104-4.96-4.104h-6.396l-2.972,16.77H104.461z"/>
		<path fill-rule="evenodd" clip-rule="evenodd" fill="#1F1A17" d="M245.564,90.656h10.385l0.458-2.767h-7.209l0.812-4.569h6.677
			l0.48-2.77h-6.677l0.711-4.036h7.213l0.506-2.769h-10.384L245.564,90.656z M238,90.915c1.726,0,3.528-0.204,4.898-0.588
			l-0.103-2.692c-1.444,0.28-3.07,0.434-4.267,0.434c-1.851,0-2.537-0.559-2.537-1.829c0-0.28,0.052-0.61,0.104-0.915l1.116-6.321
			c0.379-2.186,1.269-2.666,3.4-2.666c1.17,0,2.87,0.229,4.215,0.507l0.661-2.691c-1.525-0.406-2.996-0.659-4.57-0.659
			c-4.112,0-6.119,1.32-6.752,4.926l-1.297,7.337c-0.052,0.281-0.103,0.635-0.103,1.068C232.767,89.186,234.37,90.915,238,90.915z
			 M225.302,90.656h3.149l2.97-16.91h-3.146L225.302,90.656z M217.966,69.049l-0.992,1.371c1.196,0.865,2.083,1.601,2.769,2.312
			c1.269-0.891,2.184-1.447,3.479-2.187l-0.86-1.497c-0.814,0.383-1.525,0.788-2.237,1.32
			C219.414,69.865,218.982,69.559,217.966,69.049z M216.443,90.915c4.851,0,5.841-1.428,6.448-4.855
			c0.103-0.631,0.176-1.167,0.176-1.648c0-1.854-0.938-2.744-3.985-3.529c-2.133-0.561-2.689-0.838-2.689-1.678
			c0-0.278,0.051-0.635,0.125-1.065c0.28-1.65,0.714-1.953,2.921-1.953c1.397,0,2.846,0.202,4.444,0.583l0.532-2.616
			c-1.598-0.481-3.223-0.659-4.723-0.659c-4.442,0-5.586,0.89-6.221,4.441c-0.102,0.612-0.179,1.17-0.179,1.676
			c0,1.806,0.865,2.973,3.809,3.71c2.235,0.584,2.795,0.786,2.795,1.673c0,0.279-0.051,0.636-0.128,1.066
			c-0.305,1.677-0.711,2.186-3.097,2.186c-1.573,0-2.971-0.33-4.595-0.812l-0.687,2.438
			C212.784,90.555,215.021,90.915,216.443,90.915z M206.035,85.503c-0.307,1.7-1.374,2.642-3.684,2.642
			c-2.16,0-2.845-0.635-2.845-1.83c0-0.255,0.025-0.534,0.078-0.837l1.168-6.626c0.303-1.726,1.419-2.591,3.68-2.591
			c2.083,0,2.82,0.737,2.82,2.006c0,0.178-0.027,0.38-0.052,0.585L206.035,85.503z M201.843,90.915c4.898,0,6.677-1.729,7.285-5.159
			l1.221-6.904c0.051-0.305,0.076-0.585,0.076-0.891c0-2.486-1.806-4.468-5.661-4.468c-4.647,0-6.525,1.752-7.11,5.076l-1.243,7.033
			c-0.077,0.383-0.104,0.765-0.104,1.118C196.307,89.186,197.983,90.915,201.843,90.915z M180.793,90.656h3.149l2.969-16.91h-3.147
			L180.793,90.656z M189.833,90.656h3.479l-3.961-8.557l6.728-8.354h-3.835l-6.372,8.278L189.833,90.656z M168.022,76.261
			l0.917,8.15h-4.725L168.022,76.261z M169.723,90.656H173l-2.538-16.91h-4.265l-8.31,16.91h3.408l1.702-3.605h6.271L169.723,90.656
			z M154.287,76.515h4.725l0.505-2.769h-12.644l-0.483,2.769h4.748l-2.487,14.142h3.148L154.287,76.515z M136.488,90.915
			c4.85,0,5.841-1.428,6.45-4.855c0.102-0.631,0.178-1.167,0.178-1.648c0-1.854-0.938-2.744-3.986-3.529
			c-2.132-0.561-2.691-0.838-2.691-1.678c0-0.278,0.05-0.635,0.126-1.065c0.282-1.65,0.709-1.953,2.922-1.953
			c1.396,0,2.842,0.202,4.441,0.583l0.534-2.616c-1.603-0.481-3.225-0.659-4.722-0.659c-4.444,0-5.586,0.89-6.221,4.441
			c-0.103,0.612-0.177,1.17-0.177,1.676c0,1.806,0.864,2.973,3.808,3.71c2.234,0.584,2.793,0.786,2.793,1.673
			c0,0.279-0.05,0.636-0.127,1.066c-0.304,1.677-0.712,2.186-3.097,2.186c-1.574,0-2.973-0.33-4.596-0.812l-0.685,2.438
			C132.832,90.555,135.066,90.915,136.488,90.915z M118.184,90.656h10.385l0.456-2.767h-7.212l0.812-4.569h6.679l0.483-2.77h-6.677
			l0.711-4.036h7.209l0.506-2.769h-10.383L118.184,90.656z M111.556,90.656h3.149l2.132-16.91h-3.454l-6.397,11.452l-2.209-11.452
			h-3.353l-3.858,16.91h3.096l2.439-10.89l1.624,8.682h3.428l4.876-8.656L111.556,90.656z"/>
		<path fill-rule="evenodd" clip-rule="evenodd" fill="#4A82BF" d="M60.728,8.72c0.191,0.01,0.37,0.046,0.493,0.092
			c0.123,0.053,0.193,0.11,0.173,0.167c-0.013,0.062-0.11,0.111-0.251,0.134c-0.139,0.027-0.316,0.039-0.507,0.025
			c-0.185-0.015-0.349-0.051-0.46-0.094c-0.114-0.048-0.178-0.1-0.167-0.162c0.01-0.052,0.092-0.1,0.222-0.132
			C60.356,8.724,60.528,8.713,60.728,8.72 M63.352,11.543c0.308,0.007,0.585,0.05,0.787,0.114c0.197,0.072,0.305,0.157,0.283,0.253
			c-0.017,0.095-0.166,0.176-0.385,0.227c-0.214,0.057-0.499,0.083-0.799,0.071c-0.295-0.008-0.552-0.054-0.731-0.116
			c-0.182-0.065-0.283-0.144-0.273-0.235c0.011-0.091,0.139-0.171,0.334-0.228C62.772,11.57,63.043,11.54,63.352,11.543z
			 M65.708,14.648c0.4,0.009,0.768,0.071,1.025,0.165c0.258,0.1,0.404,0.224,0.379,0.364c-0.029,0.133-0.223,0.252-0.508,0.327
			c-0.285,0.076-0.653,0.117-1.045,0.101c-0.385-0.014-0.72-0.08-0.957-0.17c-0.231-0.093-0.371-0.212-0.355-0.341
			c0.014-0.125,0.181-0.24,0.437-0.323C64.948,14.689,65.307,14.643,65.708,14.648z M67.523,17.895
			c0.264-0.011,0.545-0.002,0.806,0.024c0.273,0.027,0.532,0.074,0.753,0.137c0.232,0.066,0.422,0.149,0.55,0.245
			c0.13,0.099,0.197,0.206,0.173,0.32c-0.022,0.113-0.126,0.213-0.29,0.301c-0.161,0.085-0.376,0.151-0.625,0.202
			c-0.232,0.044-0.499,0.073-0.769,0.082c-0.259,0.01-0.527,0-0.791-0.027c-0.243-0.026-0.462-0.065-0.651-0.113
			c-0.181-0.048-0.335-0.104-0.457-0.166c-0.118-0.059-0.21-0.125-0.268-0.193c-0.058-0.067-0.086-0.14-0.078-0.211
			c0.008-0.074,0.05-0.145,0.126-0.208c0.074-0.064,0.183-0.126,0.316-0.178c0.141-0.056,0.31-0.104,0.505-0.14
			C67.031,17.932,67.256,17.904,67.523,17.895z M69.684,21.615c0.687,0.033,1.316,0.167,1.755,0.355
			c0.441,0.19,0.694,0.434,0.646,0.685c-0.045,0.248-0.377,0.452-0.866,0.58c-0.481,0.126-1.116,0.179-1.787,0.131
			c-0.659-0.048-1.234-0.183-1.637-0.362c-0.399-0.181-0.636-0.406-0.611-0.64c0.025-0.237,0.307-0.437,0.75-0.574
			C68.384,21.652,68.997,21.582,69.684,21.615z M71.1,25.771c0.866,0.05,1.662,0.22,2.214,0.457
			c0.556,0.238,0.874,0.538,0.815,0.839c-0.059,0.298-0.477,0.54-1.095,0.687c-0.607,0.146-1.406,0.2-2.253,0.13
			c-0.83-0.065-1.557-0.239-2.066-0.462c-0.504-0.225-0.8-0.504-0.77-0.785c0.031-0.286,0.389-0.523,0.947-0.68
			C69.458,25.798,70.232,25.721,71.1,25.771z M72.171,30.357c1.05,0.054,2.014,0.252,2.683,0.533
			c0.673,0.284,1.058,0.648,0.99,1.019c-0.073,0.367-0.579,0.669-1.329,0.861c-0.735,0.185-1.706,0.259-2.729,0.188
			c-1.007-0.07-1.887-0.273-2.502-0.544c-0.612-0.269-0.971-0.606-0.934-0.954c0.037-0.352,0.467-0.648,1.146-0.848
			C70.185,30.412,71.121,30.307,72.171,30.357z M72.599,35.412c1.173,0.07,2.25,0.327,2.999,0.683
			c0.754,0.358,1.184,0.814,1.104,1.277c-0.079,0.458-0.644,0.831-1.479,1.06c-0.824,0.229-1.905,0.316-3.051,0.219
			c-1.126-0.099-2.109-0.359-2.796-0.701c-0.683-0.337-1.084-0.76-1.046-1.191c0.042-0.439,0.523-0.807,1.278-1.05
			C70.376,35.459,71.423,35.339,72.599,35.412z M72.406,41.107c1.417,0.075,2.716,0.378,3.622,0.807
			c0.911,0.432,1.429,0.985,1.333,1.553c-0.095,0.567-0.778,1.028-1.785,1.321c-0.995,0.286-2.302,0.405-3.686,0.299
			c-1.362-0.107-2.549-0.414-3.38-0.826c-0.824-0.406-1.308-0.919-1.262-1.454c0.05-0.534,0.633-0.993,1.544-1.3
			C69.724,41.194,70.987,41.033,72.406,41.107z M71.41,47.188c1.657,0.101,3.174,0.492,4.232,1.038
			c1.066,0.552,1.674,1.259,1.563,1.979c-0.113,0.715-0.91,1.301-2.089,1.667c-1.161,0.36-2.688,0.509-4.303,0.366
			c-1.592-0.141-2.98-0.538-3.95-1.061c-0.967-0.52-1.531-1.178-1.478-1.853c0.057-0.68,0.738-1.258,1.804-1.645
			C68.274,47.286,69.751,47.086,71.41,47.188z M69.49,54.262c1.908,0.1,3.649,0.556,4.867,1.213
			c1.223,0.655,1.924,1.513,1.796,2.393c-0.128,0.875-1.042,1.6-2.399,2.064c-1.332,0.455-3.089,0.653-4.945,0.502
			c-1.828-0.15-3.425-0.615-4.542-1.239c-1.109-0.624-1.761-1.42-1.699-2.243c0.066-0.833,0.848-1.545,2.072-2.034
			C65.888,54.424,67.584,54.16,69.49,54.262z M66.408,62.132c2.245,0.121,4.3,0.695,5.732,1.525
			c1.446,0.839,2.269,1.926,2.122,3.052c-0.149,1.119-1.228,2.054-2.824,2.649c-1.571,0.589-3.639,0.85-5.827,0.663
			c-2.154-0.183-4.035-0.77-5.352-1.566c-1.307-0.79-2.075-1.805-2.002-2.858c0.077-1.062,0.996-1.979,2.438-2.605
			C62.164,62.354,64.162,62.011,66.408,62.132z M57.745,71.557c2.196-0.361,5.226-0.255,7.708,0.482
			c3.038,0.898,5.246,2.554,5.183,4.526c-0.065,1.967-2.355,3.363-5.414,3.916c-2.496,0.451-5.255,0.297-7.648-0.363
			c-1.92-0.529-3.348-1.32-4.239-2.143c-0.797-0.74-1.241-1.583-1.229-2.429c0.013-0.845,0.485-1.635,1.308-2.291
			C54.332,72.521,55.553,71.92,57.745,71.557z M54.669,81.713c5.728,0.377,10.243,3.253,10.079,6.422
			c-0.161,3.166-4.937,5.43-10.668,5.053c-5.729-0.377-10.243-3.252-10.08-6.422C44.162,83.599,48.938,81.335,54.669,81.713z
			 M45.095,93.943c6.94,0.456,12.408,3.94,12.212,7.777c-0.197,3.839-5.983,6.579-12.924,6.123
			c-6.938-0.459-12.408-3.94-12.211-7.776C32.369,96.227,38.154,93.487,45.095,93.943z M32.072,107.952
			c7.823,0.556,13.987,4.785,13.766,9.446c-0.222,4.662-6.746,7.994-14.569,7.438c-7.821-0.555-13.985-4.788-13.767-9.447
			C17.724,110.728,24.248,107.396,32.072,107.952z M57.882,6.131c0.099,0,0.19,0.017,0.254,0.039
			c0.063,0.021,0.098,0.053,0.091,0.083c-0.008,0.031-0.058,0.06-0.129,0.076c-0.073,0.018-0.167,0.026-0.265,0.019
			c-0.098-0.001-0.183-0.017-0.239-0.041c-0.06-0.019-0.091-0.048-0.087-0.078c0.006-0.029,0.049-0.053,0.114-0.073
			C57.689,6.138,57.779,6.127,57.882,6.131z"/>
		<path fill-rule="evenodd" clip-rule="evenodd" fill="#FCDB00" d="M55.076,7.901c0.193,0.029,0.365,0.076,0.476,0.133
			c0.11,0.063,0.167,0.123,0.13,0.178c-0.029,0.06-0.142,0.098-0.294,0.109c-0.146,0.015-0.329,0.013-0.518-0.019
			c-0.182-0.031-0.339-0.083-0.44-0.134c-0.102-0.058-0.151-0.112-0.125-0.171c0.024-0.054,0.119-0.093,0.26-0.112
			C54.7,7.871,54.88,7.872,55.076,7.901 M56.961,10.9c0.309,0.033,0.579,0.099,0.765,0.181c0.179,0.085,0.265,0.182,0.218,0.274
			c-0.046,0.088-0.217,0.157-0.453,0.187c-0.233,0.038-0.527,0.039-0.831,0c-0.292-0.036-0.542-0.103-0.706-0.183
			c-0.167-0.077-0.248-0.164-0.211-0.252c0.034-0.086,0.185-0.152,0.4-0.19C56.363,10.876,56.649,10.869,56.961,10.9z
			 M58.493,14.151c0.404,0.044,0.759,0.139,0.994,0.254c0.235,0.119,0.347,0.256,0.281,0.388c-0.064,0.127-0.291,0.229-0.603,0.275
			c-0.305,0.051-0.69,0.057-1.083,0.006c-0.385-0.047-0.708-0.14-0.921-0.25c-0.211-0.113-0.32-0.241-0.269-0.365
			c0.051-0.124,0.247-0.22,0.532-0.276C57.713,14.125,58.09,14.112,58.493,14.151z M59.441,17.495
			c0.272,0.014,0.555,0.045,0.812,0.094c0.268,0.05,0.517,0.121,0.725,0.202c0.215,0.084,0.385,0.187,0.49,0.29
			c0.106,0.108,0.14,0.22,0.086,0.328c-0.052,0.109-0.185,0.199-0.375,0.271c-0.185,0.066-0.421,0.115-0.687,0.143
			c-0.249,0.022-0.524,0.028-0.801,0.012c-0.266-0.017-0.535-0.044-0.792-0.096c-0.238-0.048-0.449-0.108-0.626-0.172
			c-0.172-0.06-0.312-0.129-0.417-0.2c-0.107-0.069-0.181-0.141-0.22-0.213c-0.041-0.071-0.052-0.142-0.021-0.213
			c0.029-0.07,0.091-0.136,0.185-0.193c0.094-0.057,0.219-0.107,0.369-0.146c0.154-0.042,0.341-0.075,0.549-0.092
			C58.935,17.488,59.171,17.482,59.441,17.495z M60.61,21.333c0.687,0.093,1.288,0.28,1.68,0.504
			c0.395,0.224,0.583,0.485,0.467,0.727c-0.115,0.241-0.506,0.408-1.037,0.491c-0.522,0.083-1.179,0.076-1.843-0.031
			c-0.656-0.103-1.201-0.286-1.56-0.499c-0.357-0.213-0.529-0.456-0.443-0.681c0.088-0.229,0.431-0.402,0.915-0.497
			C59.282,21.255,59.922,21.24,60.61,21.333z M60.905,25.533c0.863,0.125,1.619,0.366,2.115,0.643c0.5,0.282,0.74,0.603,0.598,0.894
			c-0.142,0.287-0.632,0.487-1.299,0.579c-0.654,0.087-1.478,0.069-2.315-0.07c-0.823-0.141-1.512-0.375-1.964-0.638
			c-0.451-0.263-0.673-0.562-0.565-0.836c0.108-0.278,0.537-0.481,1.144-0.582C59.237,25.414,60.04,25.406,60.905,25.533z
			 M60.733,30.122c1.049,0.144,1.968,0.425,2.569,0.76c0.605,0.337,0.895,0.729,0.72,1.087c-0.173,0.354-0.768,0.606-1.577,0.726
			c-0.794,0.117-1.798,0.105-2.814-0.058c-1-0.158-1.834-0.437-2.383-0.755c-0.544-0.315-0.817-0.679-0.684-1.016
			c0.133-0.342,0.652-0.596,1.39-0.731C58.707,29.999,59.683,29.979,60.733,30.122z M59.781,35.113
			c1.168,0.174,2.184,0.52,2.846,0.936c0.667,0.418,0.977,0.903,0.769,1.348c-0.204,0.444-0.878,0.76-1.789,0.912
			c-0.895,0.148-2.015,0.138-3.146-0.06c-1.115-0.192-2.039-0.534-2.642-0.929c-0.597-0.392-0.888-0.844-0.729-1.264
			c0.162-0.423,0.75-0.741,1.582-0.914C57.518,34.965,58.611,34.939,59.781,35.113z M58.023,40.613
			c1.417,0.18,2.645,0.578,3.446,1.069c0.806,0.491,1.179,1.079,0.925,1.628c-0.253,0.549-1.068,0.952-2.171,1.162
			c-1.084,0.205-2.441,0.225-3.811,0.011c-1.349-0.206-2.468-0.599-3.195-1.066c-0.724-0.461-1.072-1.006-0.879-1.525
			c0.2-0.523,0.912-0.93,1.921-1.162C55.285,40.493,56.609,40.431,58.023,40.613z M55.308,46.631
			c1.639,0.271,3.057,0.81,3.972,1.456c0.921,0.652,1.337,1.409,1.029,2.106c-0.309,0.693-1.271,1.186-2.558,1.425
			c-1.265,0.235-2.842,0.222-4.426-0.083c-1.563-0.301-2.852-0.833-3.683-1.448c-0.829-0.614-1.217-1.316-0.976-1.974
			c0.244-0.666,1.084-1.162,2.262-1.433C52.128,46.409,53.669,46.362,55.308,46.631z M51.518,53.358
			c1.91,0.28,3.558,0.902,4.618,1.666c1.064,0.772,1.541,1.686,1.167,2.548c-0.374,0.854-1.506,1.485-3.014,1.817
			c-1.482,0.32-3.327,0.351-5.175,0.02c-1.819-0.32-3.315-0.936-4.279-1.662c-0.958-0.724-1.401-1.575-1.108-2.386
			c0.296-0.817,1.288-1.451,2.668-1.814C47.803,53.174,49.604,53.076,51.518,53.358z M46.233,60.655
			c2.204,0.331,4.093,1.084,5.298,2.028c1.215,0.95,1.741,2.085,1.286,3.166c-0.452,1.07-1.777,1.87-3.531,2.299
			c-1.723,0.42-3.855,0.478-5.985,0.086c-2.098-0.385-3.812-1.134-4.909-2.03c-1.089-0.893-1.58-1.949-1.22-2.962
			c0.365-1.025,1.526-1.827,3.135-2.298C41.944,60.466,44.03,60.324,46.233,60.655z M35.169,69.086
			c2.309-0.159,5.329,0.211,7.628,1.147c2.811,1.143,4.583,2.951,3.983,4.865c-0.603,1.915-3.288,3.072-6.52,3.342
			c-2.631,0.222-5.367-0.173-7.598-1.028c-1.787-0.684-3.011-1.578-3.681-2.46c-0.602-0.79-0.819-1.65-0.575-2.472
			c0.243-0.825,0.936-1.553,1.939-2.122C31.474,69.726,32.865,69.244,35.169,69.086z M29.497,78.619
			c5.581,0.857,9.287,4.011,8.274,7.04c-1.01,3.029-6.354,4.789-11.937,3.928c-5.579-0.857-9.287-4.012-8.274-7.04
			C18.572,79.52,23.917,77.758,29.497,78.619z M16.961,89.226c6.473,0.694,10.822,4.371,9.712,8.206
			c-1.112,3.838-7.265,6.386-13.738,5.691c-6.472-0.694-10.82-4.371-9.709-8.206C4.337,91.079,10.486,88.53,16.961,89.226z
			 M52.906,5.11c0.101,0.01,0.188,0.035,0.25,0.059c0.055,0.029,0.085,0.062,0.067,0.092c-0.016,0.03-0.074,0.053-0.152,0.062
			c-0.077,0.011-0.174,0.011-0.273-0.003c-0.098-0.011-0.178-0.034-0.23-0.061c-0.054-0.025-0.08-0.056-0.068-0.084
			c0.016-0.028,0.065-0.049,0.137-0.062C52.709,5.101,52.801,5.099,52.906,5.11z"/>
	</g>
</g>
<g id="Layer_2">
</g>
</svg>
